%
M48
M72
T01C0.0320
T02C0.0400
%
T01
X1592Y2950
X3092Y2950
X4592Y2950
X6092Y2950
X7592Y3450
X8592Y3450
X9592Y3450
X10592Y3450
X11592Y3450
X13092Y2950
X14592Y2950
X16092Y2950
X17592Y2950
X17592Y6950
X16092Y6950
X14592Y6950
X13092Y6950
X11592Y9450
X10592Y9450
X9592Y9450
X8592Y9450
X7592Y9450
X6092Y6950
X4592Y6950
X3092Y6950
X1592Y6950
T02
X1092Y1450
X2092Y1450
X3092Y1450
X4092Y1450
X5092Y1450
X6092Y1450
X7092Y1450
X8092Y1450
X9092Y1450
X10092Y1450
X11092Y1450
X12092Y1450
X13092Y1450
X14092Y1450
X15092Y1450
X16092Y1450
X17092Y1450
X18092Y1450
M30
